<svg width="38" height="37" viewBox="0 0 38 37" fill="none" xmlns="http://www.w3.org/2000/svg">
<path d="M18.9991 37.0001C28.9096 37.0001 36.9436 29.1775 36.9436 19.5279C36.9436 9.87824 28.9096 2.05566 18.9991 2.05566C9.08869 2.05566 1.05469 9.87824 1.05469 19.5279C1.05469 29.1775 9.08869 37.0001 18.9991 37.0001Z" fill="#F4900C"/>
<path d="M18.9991 34.9444C28.9096 34.9444 36.9436 27.1219 36.9436 17.4722C36.9436 7.82258 28.9096 0 18.9991 0C9.08869 0 1.05469 7.82258 1.05469 17.4722C1.05469 27.1219 9.08869 34.9444 18.9991 34.9444Z" fill="#FFCC4D"/>
<path d="M19.0004 32.8891C27.162 32.8891 33.7782 26.447 33.7782 18.5002C33.7782 10.5535 27.162 4.11133 19.0004 4.11133C10.8389 4.11133 4.22266 10.5535 4.22266 18.5002C4.22266 26.447 10.8389 32.8891 19.0004 32.8891Z" fill="#FFE8B6"/>
<path d="M19.0004 31.8613C27.162 31.8613 33.7782 25.4191 33.7782 17.4724C33.7782 9.52562 27.162 3.0835 19.0004 3.0835C10.8389 3.0835 4.22266 9.52562 4.22266 17.4724C4.22266 25.4191 10.8389 31.8613 19.0004 31.8613Z" fill="#FFAC33"/>
<g clip-path="url(#clip0_1197_554)">
<path d="M27.6904 9.71493C27.694 9.69277 27.6919 9.67059 27.6842 9.65094C27.6766 9.63128 27.6638 9.61496 27.6473 9.60383L26.9994 9.16552L27.0179 8.29438C27.0168 8.2731 27.0106 8.25305 27 8.23621C26.9893 8.21937 26.9745 8.2063 26.957 8.19829C26.9395 8.19029 26.92 8.18761 26.9002 8.19053C26.8805 8.19344 26.8613 8.20185 26.8445 8.21494L26.1969 8.79795L25.4418 8.59361C25.4226 8.58838 25.4019 8.58936 25.382 8.59643C25.3622 8.6035 25.344 8.61637 25.3296 8.63356C25.3148 8.65051 25.3043 8.67117 25.2992 8.6932C25.294 8.71523 25.2946 8.73776 25.3006 8.75825L25.5515 9.55751L25.0649 10.302C25.0524 10.3212 25.0447 10.3433 25.0427 10.3658C25.0407 10.3883 25.0444 10.4103 25.0535 10.4294C25.0627 10.4482 25.0769 10.4632 25.0944 10.4728C25.1118 10.4824 25.1319 10.4861 25.1523 10.4836L25.9518 10.393L26.4065 11.0581C26.4164 11.0732 26.4299 11.0849 26.4457 11.0922C26.4663 11.1011 26.4894 11.103 26.5122 11.0975C26.5326 11.0919 26.5517 11.0804 26.5674 11.0642C26.5831 11.0479 26.5948 11.0277 26.6012 11.0057L26.8458 10.1504L27.6136 9.81769C27.6332 9.80916 27.6508 9.79502 27.6644 9.77686C27.678 9.75869 27.687 9.73724 27.6904 9.71493Z" fill="white"/>
</g>
<g clip-path="url(#clip1_1197_554)">
<path d="M11.042 9.71493C11.0384 9.69277 11.0406 9.67059 11.0482 9.65094C11.0558 9.63128 11.0686 9.61496 11.0851 9.60383L11.733 9.16552L11.7145 8.29438C11.7156 8.2731 11.7218 8.25305 11.7324 8.23621C11.7431 8.21937 11.7579 8.2063 11.7754 8.19829C11.7929 8.19029 11.8125 8.18761 11.8322 8.19053C11.8519 8.19344 11.8711 8.20185 11.8879 8.21494L12.5355 8.79795L13.2906 8.59361C13.3098 8.58838 13.3305 8.58936 13.3504 8.59643C13.3702 8.6035 13.3884 8.61637 13.4029 8.63356C13.4176 8.65051 13.4282 8.67117 13.4333 8.6932C13.4384 8.71523 13.4379 8.73776 13.4318 8.75825L13.1809 9.55751L13.6676 10.302C13.6801 10.3212 13.6877 10.3433 13.6897 10.3658C13.6917 10.3883 13.688 10.4103 13.6789 10.4294C13.6697 10.4482 13.6555 10.4632 13.6381 10.4728C13.6206 10.4824 13.6005 10.4861 13.5801 10.4836L12.7807 10.393L12.3259 11.0581C12.316 11.0732 12.3025 11.0849 12.2867 11.0922C12.2662 11.1011 12.243 11.103 12.2202 11.0975C12.1999 11.0919 12.1807 11.0804 12.165 11.0642C12.1493 11.0479 12.1376 11.0277 12.1312 11.0057L11.8866 10.1504L11.1188 9.81769C11.0992 9.80916 11.0816 9.79502 11.068 9.77686C11.0544 9.75869 11.0454 9.73724 11.042 9.71493Z" fill="white"/>
</g>
<path d="M20.6648 8.14279C20.6589 8.12115 20.6477 8.10188 20.6326 8.08718C20.6175 8.07249 20.599 8.06297 20.5794 8.05973L19.8078 7.93105L19.4619 7.13133C19.452 7.11243 19.438 7.09678 19.4213 7.08592C19.4046 7.07505 19.3857 7.06934 19.3665 7.06934C19.3472 7.06934 19.3283 7.07505 19.3116 7.08592C19.2949 7.09678 19.2809 7.11243 19.2711 7.13133L18.9251 7.93105L18.1535 8.05973C18.1339 8.06297 18.1155 8.07249 18.1004 8.08718C18.0852 8.10188 18.0741 8.12115 18.0681 8.14279C18.0617 8.16435 18.0608 8.18752 18.0653 8.20968C18.0698 8.23184 18.0797 8.25211 18.0937 8.26821L18.6547 8.8904L18.5223 9.76993C18.5189 9.79257 18.5211 9.81584 18.5287 9.83713C18.5362 9.85841 18.5488 9.87688 18.565 9.89046C18.5812 9.90368 18.6003 9.91145 18.6202 9.91289C18.6401 9.91432 18.6599 9.90938 18.6774 9.8986L19.3665 9.48327L20.0569 9.8986C20.0722 9.90819 20.0893 9.91323 20.1068 9.91326C20.1291 9.91287 20.1509 9.90494 20.1694 9.89046C20.1856 9.87688 20.1982 9.85841 20.2057 9.83713C20.2133 9.81584 20.2155 9.79257 20.2121 9.76993L20.0783 8.8904L20.6378 8.26821C20.6521 8.25228 20.6622 8.23209 20.667 8.20993C20.6718 8.18776 20.671 8.1645 20.6648 8.14279Z" fill="white"/>
<path d="M11.0567 18.09C11.1067 18.07 11.1484 18.06 11.1817 18.06C11.2351 18.06 11.2751 18.08 11.3017 18.12C11.3284 18.16 11.3417 18.2117 11.3417 18.275C11.3417 18.375 11.3167 18.46 11.2667 18.53C11.2201 18.6 11.1384 18.6633 11.0217 18.72C10.8251 18.8133 10.5701 18.8883 10.2567 18.945C9.94341 18.9983 9.63507 19.025 9.33174 19.025C8.91174 19.025 8.56007 18.9783 8.27674 18.885C7.9934 18.7883 7.78174 18.6567 7.64174 18.49C7.50507 18.3233 7.43674 18.135 7.43674 17.925C7.43674 17.6383 7.5284 17.395 7.71174 17.195C7.8984 16.9917 8.17174 16.845 8.53174 16.755C8.33507 16.6983 8.18341 16.5983 8.07674 16.455C7.9734 16.3117 7.92174 16.1517 7.92174 15.975C7.92174 15.735 7.99674 15.5233 8.14674 15.34C8.30007 15.1533 8.50507 15.01 8.76174 14.91C9.01841 14.81 9.30007 14.76 9.60674 14.76C10.0201 14.76 10.3301 14.85 10.5367 15.03C10.7434 15.2067 10.8467 15.4367 10.8467 15.72C10.8467 15.9167 10.8101 16.0767 10.7367 16.2C10.6667 16.32 10.5651 16.38 10.4317 16.38C10.3384 16.38 10.2651 16.36 10.2117 16.32C10.1584 16.2767 10.1317 16.2133 10.1317 16.13C10.1317 16.0733 10.1401 16.0117 10.1567 15.945C10.1734 15.835 10.1817 15.76 10.1817 15.72C10.1817 15.6 10.1367 15.5033 10.0467 15.43C9.95674 15.3533 9.80674 15.315 9.59674 15.315C9.31341 15.315 9.08674 15.375 8.91674 15.495C8.74674 15.615 8.66174 15.7767 8.66174 15.98C8.66174 16.1367 8.72507 16.2667 8.85174 16.37C8.98174 16.47 9.19174 16.525 9.48174 16.535C9.55507 16.5383 9.60674 16.555 9.63674 16.585C9.66674 16.615 9.68174 16.665 9.68174 16.735C9.68174 16.955 9.58174 17.0667 9.38174 17.07C9.10507 17.0767 8.87507 17.115 8.69174 17.185C8.51174 17.255 8.38007 17.345 8.29674 17.455C8.21674 17.5617 8.17674 17.6767 8.17674 17.8C8.17674 18.0067 8.2734 18.1633 8.46674 18.27C8.66007 18.3733 8.96674 18.425 9.38674 18.425C9.66341 18.425 9.95507 18.3933 10.2617 18.33C10.5717 18.2633 10.8367 18.1833 11.0567 18.09ZM11.8068 19.025C11.4801 19.025 11.2251 18.9333 11.0418 18.75C10.8618 18.5633 10.7718 18.3183 10.7718 18.015C10.7718 17.745 10.8251 17.5083 10.9318 17.305C11.0385 17.1017 11.1768 16.945 11.3468 16.835C11.5168 16.725 11.6951 16.67 11.8818 16.67C12.0651 16.67 12.2068 16.725 12.3068 16.835C12.4101 16.9417 12.4618 17.08 12.4618 17.25C12.4618 17.39 12.4301 17.5083 12.3668 17.605C12.3068 17.7017 12.2268 17.75 12.1268 17.75C12.0635 17.75 12.0118 17.735 11.9718 17.705C11.9351 17.675 11.9168 17.6333 11.9168 17.58C11.9168 17.5567 11.9201 17.53 11.9268 17.5C11.9335 17.47 11.9385 17.4483 11.9418 17.435C11.9585 17.385 11.9668 17.3383 11.9668 17.295C11.9668 17.2517 11.9551 17.2183 11.9318 17.195C11.9118 17.1717 11.8818 17.16 11.8418 17.16C11.7651 17.16 11.6935 17.195 11.6268 17.265C11.5601 17.3317 11.5068 17.4233 11.4668 17.54C11.4268 17.6567 11.4068 17.785 11.4068 17.925C11.4068 18.3117 11.5751 18.505 11.9118 18.505C12.0485 18.505 12.1951 18.46 12.3518 18.37C12.5118 18.2767 12.6685 18.1383 12.8218 17.955C12.8618 17.9083 12.9068 17.885 12.9568 17.885C13.0001 17.885 13.0335 17.905 13.0568 17.945C13.0835 17.985 13.0968 18.04 13.0968 18.11C13.0968 18.2367 13.0651 18.34 13.0018 18.42C12.8451 18.6133 12.6568 18.7633 12.4368 18.87C12.2201 18.9733 12.0101 19.025 11.8068 19.025ZM15.2426 17.465C15.286 17.465 15.3193 17.4867 15.3426 17.53C15.366 17.5733 15.3776 17.6283 15.3776 17.695C15.3776 17.855 15.3293 17.95 15.2326 17.98C15.0326 18.05 14.8126 18.09 14.5726 18.1C14.5093 18.38 14.3843 18.605 14.1976 18.775C14.011 18.9417 13.7993 19.025 13.5626 19.025C13.3626 19.025 13.191 18.9767 13.0476 18.88C12.9076 18.7833 12.801 18.655 12.7276 18.495C12.6543 18.335 12.6176 18.1617 12.6176 17.975C12.6176 17.7217 12.666 17.4967 12.7626 17.3C12.8593 17.1 12.9926 16.945 13.1626 16.835C13.3326 16.7217 13.521 16.665 13.7276 16.665C13.981 16.665 14.1843 16.7533 14.3376 16.93C14.4943 17.1033 14.586 17.3183 14.6126 17.575C14.7693 17.565 14.956 17.5317 15.1726 17.475C15.1993 17.4683 15.2226 17.465 15.2426 17.465ZM13.6026 18.495C13.7093 18.495 13.801 18.4517 13.8776 18.365C13.9576 18.2783 14.011 18.1533 14.0376 17.99C13.9343 17.92 13.8543 17.8283 13.7976 17.715C13.7443 17.6017 13.7176 17.4817 13.7176 17.355C13.7176 17.3017 13.7226 17.2483 13.7326 17.195H13.7076C13.5743 17.195 13.4626 17.26 13.3726 17.39C13.286 17.5167 13.2426 17.6967 13.2426 17.93C13.2426 18.1133 13.2776 18.2533 13.3476 18.35C13.421 18.4467 13.506 18.495 13.6026 18.495ZM16.9735 19.025C16.5768 19.025 16.2318 18.9533 15.9385 18.81C15.6452 18.6633 15.4202 18.4567 15.2635 18.19C15.1068 17.9233 15.0285 17.6133 15.0285 17.26C15.0285 16.77 15.1202 16.335 15.3035 15.955C15.4902 15.575 15.7418 15.2817 16.0585 15.075C16.3752 14.865 16.7268 14.76 17.1135 14.76C17.4735 14.76 17.7468 14.8533 17.9335 15.04C18.1202 15.2233 18.2135 15.4667 18.2135 15.77C18.2135 15.9733 18.1768 16.1367 18.1035 16.26C18.0335 16.3833 17.9318 16.445 17.7985 16.445C17.7052 16.445 17.6318 16.4233 17.5785 16.38C17.5252 16.3367 17.4985 16.2733 17.4985 16.19C17.4985 16.16 17.5052 16.105 17.5185 16.025C17.5385 15.925 17.5485 15.845 17.5485 15.785C17.5485 15.4817 17.3868 15.33 17.0635 15.33C16.8435 15.33 16.6335 15.4017 16.4335 15.545C16.2335 15.6883 16.0718 15.9 15.9485 16.18C15.8252 16.4567 15.7635 16.7867 15.7635 17.17C15.7635 17.57 15.8752 17.88 16.0985 18.1C16.3218 18.3167 16.6518 18.425 17.0885 18.425C17.3052 18.425 17.5235 18.3983 17.7435 18.345C17.9668 18.2883 18.2135 18.2033 18.4835 18.09C18.5335 18.07 18.5752 18.06 18.6085 18.06C18.6618 18.06 18.7018 18.08 18.7285 18.12C18.7552 18.16 18.7685 18.2117 18.7685 18.275C18.7685 18.4783 18.6585 18.6283 18.4385 18.725C18.2018 18.8283 17.9552 18.905 17.6985 18.955C17.4452 19.0017 17.2035 19.025 16.9735 19.025ZM21.1512 17.885C21.1946 17.885 21.2279 17.905 21.2512 17.945C21.2779 17.985 21.2912 18.04 21.2912 18.11C21.2912 18.2433 21.2596 18.3467 21.1962 18.42C21.0429 18.5967 20.8846 18.7417 20.7212 18.855C20.5612 18.9683 20.3779 19.025 20.1712 19.025C20.0012 19.025 19.8729 18.9767 19.7862 18.88C19.6996 18.78 19.6562 18.6367 19.6562 18.45C19.6562 18.3567 19.6796 18.19 19.7262 17.95C19.7696 17.74 19.7912 17.595 19.7912 17.515C19.7912 17.4617 19.7729 17.435 19.7362 17.435C19.6929 17.435 19.6312 17.4917 19.5512 17.605C19.4712 17.715 19.3912 17.8617 19.3112 18.045C19.2312 18.2283 19.1662 18.4217 19.1162 18.625C19.0529 18.8917 18.8962 19.025 18.6462 19.025C18.5462 19.025 18.4796 18.99 18.4462 18.92C18.4162 18.8467 18.4012 18.7167 18.4012 18.53C18.4012 18.4233 18.4029 18.3383 18.4062 18.275L18.4112 17.875C18.4112 17.3617 18.4629 16.8267 18.5662 16.27C18.6729 15.7133 18.8279 15.2467 19.0312 14.87C19.2379 14.49 19.4846 14.3 19.7712 14.3C19.9246 14.3 20.0479 14.3667 20.1412 14.5C20.2379 14.63 20.2862 14.8 20.2862 15.01C20.2862 15.3467 20.1879 15.6967 19.9912 16.06C19.7946 16.42 19.4746 16.8417 19.0312 17.325C19.0212 17.4983 19.0162 17.6767 19.0162 17.86C19.1262 17.5767 19.2479 17.3467 19.3812 17.17C19.5179 16.99 19.6512 16.8617 19.7812 16.785C19.9146 16.7083 20.0362 16.67 20.1462 16.67C20.3629 16.67 20.4712 16.7783 20.4712 16.995C20.4712 17.125 20.4346 17.36 20.3612 17.7C20.2979 17.99 20.2662 18.1817 20.2662 18.275C20.2662 18.4083 20.3146 18.475 20.4112 18.475C20.4779 18.475 20.5562 18.435 20.6462 18.355C20.7396 18.2717 20.8629 18.1383 21.0162 17.955C21.0562 17.9083 21.1012 17.885 21.1512 17.885ZM19.6662 14.795C19.6062 14.795 19.5396 14.8817 19.4662 15.055C19.3929 15.225 19.3212 15.4567 19.2512 15.75C19.1846 16.04 19.1296 16.3567 19.0862 16.7C19.2929 16.4567 19.4629 16.1917 19.5962 15.905C19.7329 15.6183 19.8012 15.3583 19.8012 15.125C19.8012 15.0183 19.7896 14.9367 19.7662 14.88C19.7429 14.8233 19.7096 14.795 19.6662 14.795ZM21.501 19.025C21.2943 19.025 21.1293 18.95 21.006 18.8C20.8827 18.65 20.821 18.4533 20.821 18.21C20.821 17.9433 20.8827 17.6917 21.006 17.455C21.1293 17.215 21.2927 17.0233 21.496 16.88C21.7027 16.7333 21.921 16.66 22.151 16.66C22.2243 16.66 22.2727 16.675 22.296 16.705C22.3227 16.7317 22.3443 16.7817 22.361 16.855C22.431 16.8417 22.5043 16.835 22.581 16.835C22.7443 16.835 22.826 16.8933 22.826 17.01C22.826 17.08 22.801 17.2467 22.751 17.51C22.6743 17.8933 22.636 18.16 22.636 18.31C22.636 18.36 22.6477 18.4 22.671 18.43C22.6977 18.46 22.731 18.475 22.771 18.475C22.8343 18.475 22.911 18.435 23.001 18.355C23.091 18.2717 23.2127 18.1383 23.366 17.955C23.406 17.9083 23.451 17.885 23.501 17.885C23.5443 17.885 23.5777 17.905 23.601 17.945C23.6277 17.985 23.641 18.04 23.641 18.11C23.641 18.2433 23.6093 18.3467 23.546 18.42C23.4093 18.59 23.2643 18.7333 23.111 18.85C22.9577 18.9667 22.8093 19.025 22.666 19.025C22.556 19.025 22.4543 18.9883 22.361 18.915C22.271 18.8383 22.2027 18.735 22.156 18.605C21.9827 18.885 21.7643 19.025 21.501 19.025ZM21.681 18.52C21.7543 18.52 21.8243 18.4767 21.891 18.39C21.9577 18.3033 22.006 18.1883 22.036 18.045L22.221 17.125C22.081 17.1283 21.951 17.1817 21.831 17.285C21.7143 17.385 21.621 17.5183 21.551 17.685C21.481 17.8517 21.446 18.0283 21.446 18.215C21.446 18.3183 21.466 18.395 21.506 18.445C21.5493 18.495 21.6077 18.52 21.681 18.52ZM23.5896 19.025C23.463 19.025 23.373 18.9583 23.3196 18.825C23.2696 18.6917 23.2446 18.4783 23.2446 18.185C23.2446 17.7517 23.3063 17.34 23.4296 16.95C23.4596 16.8533 23.508 16.7833 23.5746 16.74C23.6446 16.6933 23.7413 16.67 23.8646 16.67C23.9313 16.67 23.978 16.6783 24.0046 16.695C24.0313 16.7117 24.0446 16.7433 24.0446 16.79C24.0446 16.8433 24.0196 16.9633 23.9696 17.15C23.9363 17.2833 23.9096 17.4 23.8896 17.5C23.8696 17.6 23.853 17.7233 23.8396 17.87C23.9496 17.5833 24.073 17.35 24.2096 17.17C24.3463 16.99 24.4796 16.8617 24.6096 16.785C24.743 16.7083 24.8646 16.67 24.9746 16.67C25.1913 16.67 25.2996 16.7783 25.2996 16.995C25.2996 17.0383 25.2846 17.1433 25.2546 17.31C25.228 17.4433 25.2146 17.5267 25.2146 17.56C25.2146 17.6767 25.2563 17.735 25.3396 17.735C25.433 17.735 25.553 17.6617 25.6996 17.515C25.743 17.4717 25.788 17.45 25.8346 17.45C25.878 17.45 25.9113 17.47 25.9346 17.51C25.9613 17.5467 25.9746 17.5967 25.9746 17.66C25.9746 17.7833 25.9413 17.88 25.8746 17.95C25.7813 18.0467 25.6713 18.13 25.5446 18.2C25.4213 18.2667 25.2896 18.3 25.1496 18.3C24.973 18.3 24.838 18.255 24.7446 18.165C24.6546 18.075 24.6096 17.9533 24.6096 17.8C24.6096 17.75 24.6146 17.7 24.6246 17.65C24.6313 17.5833 24.6346 17.5383 24.6346 17.515C24.6346 17.4617 24.6163 17.435 24.5796 17.435C24.5296 17.435 24.463 17.4917 24.3796 17.605C24.2996 17.715 24.2196 17.8617 24.1396 18.045C24.0596 18.2283 23.9946 18.4217 23.9446 18.625C23.908 18.7817 23.8646 18.8883 23.8146 18.945C23.768 18.9983 23.693 19.025 23.5896 19.025ZM28.07 17.895C28.1134 17.895 28.1467 17.9167 28.17 17.96C28.1967 18 28.21 18.0517 28.21 18.115C28.21 18.1917 28.1984 18.2517 28.175 18.295C28.1517 18.3383 28.115 18.3767 28.065 18.41C27.7784 18.6033 27.5684 18.7467 27.435 18.84L27.115 19.055C26.9884 19.745 26.8217 20.2867 26.615 20.68C26.4117 21.0767 26.1517 21.275 25.835 21.275C25.665 21.275 25.5267 21.2217 25.42 21.115C25.3134 21.0117 25.26 20.875 25.26 20.705C25.26 20.4683 25.3534 20.2133 25.54 19.94C25.7267 19.67 26.0767 19.3367 26.59 18.94L26.62 18.745C26.5634 18.835 26.4884 18.905 26.395 18.955C26.305 19.0017 26.215 19.025 26.125 19.025C25.9184 19.025 25.7534 18.95 25.63 18.8C25.5067 18.65 25.445 18.4533 25.445 18.21C25.445 17.9433 25.5067 17.6917 25.63 17.455C25.7534 17.215 25.9167 17.0233 26.12 16.88C26.3267 16.7333 26.545 16.66 26.775 16.66C26.8484 16.66 26.8967 16.675 26.92 16.705C26.9467 16.7317 26.9684 16.7817 26.985 16.855C27.0484 16.8417 27.1217 16.835 27.205 16.835C27.2884 16.835 27.3467 16.8483 27.38 16.875C27.4167 16.8983 27.435 16.9467 27.435 17.02C27.435 17.06 27.4334 17.0917 27.43 17.115C27.4167 17.2183 27.375 17.48 27.305 17.9C27.2917 17.98 27.2767 18.0683 27.26 18.165C27.2467 18.2583 27.2317 18.3583 27.215 18.465C27.4717 18.265 27.7184 18.0883 27.955 17.935C27.9984 17.9083 28.0367 17.895 28.07 17.895ZM26.305 18.52C26.3817 18.52 26.455 18.4733 26.525 18.38C26.595 18.2867 26.645 18.1533 26.675 17.98L26.835 17.125C26.6984 17.1283 26.5717 17.1817 26.455 17.285C26.3384 17.385 26.245 17.5183 26.175 17.685C26.105 17.8517 26.07 18.0283 26.07 18.215C26.07 18.3183 26.09 18.395 26.13 18.445C26.1734 18.495 26.2317 18.52 26.305 18.52ZM25.89 20.79C25.9734 20.79 26.0667 20.69 26.17 20.49C26.2767 20.29 26.3784 19.9717 26.475 19.535C26.2184 19.755 26.0334 19.9533 25.92 20.13C25.8067 20.3067 25.75 20.4617 25.75 20.595C25.75 20.6517 25.76 20.6983 25.78 20.735C25.8034 20.7717 25.84 20.79 25.89 20.79ZM29.6926 18.035C29.7359 18.035 29.7693 18.055 29.7926 18.095C29.8193 18.135 29.8326 18.19 29.8326 18.26C29.8326 18.38 29.8043 18.4833 29.7476 18.57C29.6543 18.7133 29.5309 18.825 29.3776 18.905C29.2276 18.985 29.0476 19.025 28.8376 19.025C28.5176 19.025 28.2693 18.93 28.0926 18.74C27.9159 18.5467 27.8276 18.2867 27.8276 17.96C27.8276 17.73 27.8759 17.5167 27.9726 17.32C28.0693 17.12 28.2026 16.9617 28.3726 16.845C28.5459 16.7283 28.7409 16.67 28.9576 16.67C29.1509 16.67 29.3059 16.7283 29.4226 16.845C29.5393 16.9583 29.5976 17.1133 29.5976 17.31C29.5976 17.54 29.5143 17.7383 29.3476 17.905C29.1843 18.0683 28.9043 18.1983 28.5076 18.295C28.5876 18.4483 28.7226 18.525 28.9126 18.525C29.0493 18.525 29.1609 18.4933 29.2476 18.43C29.3376 18.3667 29.4409 18.26 29.5576 18.11C29.5976 18.06 29.6426 18.035 29.6926 18.035ZM28.8726 17.16C28.7493 17.16 28.6443 17.2317 28.5576 17.375C28.4743 17.5183 28.4326 17.6917 28.4326 17.895V17.905C28.6293 17.8583 28.7843 17.7883 28.8976 17.695C29.0109 17.6017 29.0676 17.4933 29.0676 17.37C29.0676 17.3067 29.0493 17.2567 29.0126 17.22C28.9793 17.18 28.9326 17.16 28.8726 17.16Z" fill="white"/>
<path d="M14.3608 25V22.18H15.6128C15.9222 22.18 16.1582 22.2547 16.3208 22.404C16.4835 22.5533 16.5648 22.7587 16.5648 23.02C16.5648 23.2787 16.4835 23.484 16.3208 23.636C16.1582 23.788 15.9222 23.864 15.6128 23.864H14.8768V25H14.3608ZM14.8768 23.456H15.5528C15.7235 23.456 15.8515 23.4187 15.9368 23.344C16.0222 23.2667 16.0648 23.1587 16.0648 23.02C16.0648 22.8813 16.0222 22.7747 15.9368 22.7C15.8515 22.6227 15.7235 22.584 15.5528 22.584H14.8768V23.456ZM17.7992 25.04C17.5912 25.04 17.4112 24.9973 17.2592 24.912C17.1072 24.8267 16.9886 24.7053 16.9032 24.548C16.8206 24.3907 16.7792 24.204 16.7792 23.988C16.7792 23.772 16.8206 23.5867 16.9032 23.432C16.9886 23.2747 17.1072 23.1533 17.2592 23.068C17.4112 22.9827 17.5912 22.94 17.7992 22.94C18.0072 22.94 18.1872 22.9827 18.3392 23.068C18.4939 23.1533 18.6126 23.2747 18.6952 23.432C18.7806 23.5867 18.8232 23.772 18.8232 23.988C18.8232 24.204 18.7806 24.3907 18.6952 24.548C18.6126 24.7053 18.4939 24.8267 18.3392 24.912C18.1872 24.9973 18.0072 25.04 17.7992 25.04ZM17.7992 24.656C17.9566 24.656 18.0819 24.6013 18.1752 24.492C18.2686 24.38 18.3152 24.212 18.3152 23.988C18.3152 23.764 18.2686 23.5973 18.1752 23.488C18.0819 23.3787 17.9566 23.324 17.7992 23.324C17.6419 23.324 17.5166 23.3787 17.4232 23.488C17.3299 23.5973 17.2832 23.764 17.2832 23.988C17.2832 24.212 17.3299 24.38 17.4232 24.492C17.5166 24.6013 17.6419 24.656 17.7992 24.656ZM19.2544 25V22.98H19.7544V25H19.2544ZM19.2264 22.6V22.112H19.7824V22.6H19.2264ZM20.2974 25V23.484C20.2974 23.4013 20.2947 23.3173 20.2894 23.232C20.2841 23.1467 20.2761 23.0627 20.2654 22.98H20.7494L20.7894 23.38H20.7414C20.8054 23.2387 20.9001 23.1307 21.0254 23.056C21.1507 22.9787 21.2961 22.94 21.4614 22.94C21.6987 22.94 21.8774 23.0067 21.9974 23.14C22.1174 23.2733 22.1774 23.4813 22.1774 23.764V25H21.6774V23.788C21.6774 23.6253 21.6454 23.5093 21.5814 23.44C21.5201 23.368 21.4267 23.332 21.3014 23.332C21.1467 23.332 21.0241 23.38 20.9334 23.476C20.8427 23.572 20.7974 23.7 20.7974 23.86V25H20.2974ZM23.5715 25.04C23.3315 25.04 23.1502 24.9773 23.0275 24.852C22.9049 24.7267 22.8435 24.5387 22.8435 24.288V23.356H22.4555V22.98H22.8435V22.464L23.3435 22.336V22.98H23.8835V23.356H23.3435V24.256C23.3435 24.3947 23.3702 24.492 23.4235 24.548C23.4769 24.604 23.5502 24.632 23.6435 24.632C23.6942 24.632 23.7369 24.628 23.7715 24.62C23.8089 24.612 23.8449 24.6013 23.8795 24.588V24.984C23.8342 25.0027 23.7835 25.016 23.7275 25.024C23.6742 25.0347 23.6222 25.04 23.5715 25.04Z" fill="white"/>
<defs>
<clipPath id="clip0_1197_554">
<rect width="3.41674" height="3.90903" fill="white" transform="translate(25.627 7) rotate(24.6098)"/>
</clipPath>
<clipPath id="clip1_1197_554">
<rect width="3.41674" height="3.90903" fill="white" transform="matrix(-0.909165 0.416436 0.416436 0.909165 13.1055 7)"/>
</clipPath>
</defs>
</svg>
