<svg width="42" height="30" viewBox="0 0 42 30" fill="none" xmlns="http://www.w3.org/2000/svg">
<path d="M32.4545 27.1875C31.6951 27.1875 30.9667 26.8912 30.4296 26.3637C29.8926 25.8363 29.5909 25.1209 29.5909 24.375C29.5909 23.6291 29.8926 22.9137 30.4296 22.3863C30.9667 21.8588 31.6951 21.5625 32.4545 21.5625C33.214 21.5625 33.9424 21.8588 34.4794 22.3863C35.0165 22.9137 35.3182 23.6291 35.3182 24.375C35.3182 25.1209 35.0165 25.8363 34.4794 26.3637C33.9424 26.8912 33.214 27.1875 32.4545 27.1875ZM35.3182 10.3125L39.06 15H30.5455V10.3125M9.54545 27.1875C8.78597 27.1875 8.05759 26.8912 7.52056 26.3637C6.98352 25.8363 6.68182 25.1209 6.68182 24.375C6.68182 23.6291 6.98352 22.9137 7.52056 22.3863C8.05759 21.8588 8.78597 21.5625 9.54545 21.5625C10.3049 21.5625 11.0333 21.8588 11.5704 22.3863C12.1074 22.9137 12.4091 23.6291 12.4091 24.375C12.4091 25.1209 12.1074 25.8363 11.5704 26.3637C11.0333 26.8912 10.3049 27.1875 9.54545 27.1875ZM36.2727 7.5H30.5455V0H3.81818C1.69909 0 0 1.66875 0 3.75V24.375H3.81818C3.81818 25.8668 4.42159 27.2976 5.49566 28.3525C6.56973 29.4074 8.02649 30 9.54545 30C11.0644 30 12.5212 29.4074 13.5952 28.3525C14.6693 27.2976 15.2727 25.8668 15.2727 24.375H26.7273C26.7273 25.8668 27.3307 27.2976 28.4048 28.3525C29.4788 29.4074 30.9356 30 32.4545 30C33.9735 30 35.4303 29.4074 36.5043 28.3525C37.5784 27.2976 38.1818 25.8668 38.1818 24.375H42V15L36.2727 7.5Z" fill="#437252"/>
<path d="M23.7483 12.678L21.8964 15.7182C21.5334 16.322 20.8593 16.6379 20.1779 16.5958H18.6964V18L16.8445 14.8405L18.6964 11.681V13.0853H20.7853L19.1408 10.3821L22.3483 8.62688L23.6816 10.8175C24.0668 11.3581 24.1186 12.0812 23.7483 12.678ZM14.4074 4H18.1112C18.8371 4 19.4667 4.4002 19.7705 4.97593L20.5112 6.19759L21.7927 5.49549L19.8371 8.59178L16.0223 8.65496L17.3038 7.95286L16.2593 6.2327L14.6223 8.93581L11.4074 7.18054L12.7408 4.98997C13.0445 4.40722 13.6741 4 14.4074 4ZM11.3259 15.7252L9.47408 12.6851C9.11111 12.0883 9.16296 11.3721 9.54074 10.8315L10.2815 9.61685L9 8.91474L12.8074 8.97091L14.7704 12.0742L13.4889 11.3721L12.4445 13.0853H15.7334V16.5958H13.0667C12.7197 16.6196 12.3725 16.5506 12.0648 16.3967C11.7571 16.2428 11.5011 16.0101 11.3259 15.7252Z" fill="#60B15B"/>
</svg>
