<svg width="38" height="36" viewBox="0 0 38 36" fill="none" xmlns="http://www.w3.org/2000/svg">
<g clip-path="url(#clip0_1197_547)">
<path d="M17.5371 24.666L17.2164 32.433L17.1738 32.898L8.19063 32.286C7.65045 32.2308 7.14518 31.9965 6.75727 31.6215C6.33368 31.2423 5.99508 30.7799 5.76319 30.264L5.75255 30.2385C5.60008 29.8739 5.49685 29.4911 5.44551 29.1L5.44247 29.0775C5.3958 28.6087 5.4266 28.1355 5.53367 27.6765L5.52759 27.705C5.635 27.184 5.7186 26.797 5.77839 26.544C5.93343 25.992 6.08999 25.5435 6.27087 25.1055L6.23895 25.194C6.48113 24.547 6.61641 24.1755 6.64479 24.0795C7.75844 24.2465 11.3882 24.4425 17.5341 24.6675L17.5371 24.666ZM9.25767 12.2985L13.1078 20.298L9.96447 18.357C9.13115 19.2906 8.3575 20.2745 7.64799 21.303L7.58111 21.4065C7.04607 22.161 6.52927 23.0265 6.08239 23.9295L6.03071 24.045C5.6882 24.788 5.407 25.453 5.18711 26.04C5.01601 26.4546 4.88619 26.8846 4.79951 27.324L4.79191 27.3705L4.70679 27.813L0.643826 20.2785C0.406394 19.9287 0.273159 19.5203 0.259266 19.0995V19.095C0.22943 18.7536 0.274002 18.4099 0.389986 18.087L0.385426 18.105L0.555666 17.7255C1.05727 16.8395 1.86996 15.519 2.99375 13.764L0.00390625 11.9415L9.25767 12.2985ZM35.5841 23.211L31.5697 30.7875C31.4098 31.1786 31.1417 31.5175 30.7961 31.7655L30.79 31.77C30.5214 31.9789 30.2087 32.1255 29.8749 32.199L29.8597 32.202L29.4752 32.286C28.4629 32.384 26.9018 32.4665 24.7921 32.5335L24.9623 36L20.0436 28.254L24.5595 20.613L24.7085 24.264C26.7555 24.4842 28.8188 24.5173 30.8721 24.363L30.7596 24.3705C32.0339 24.2906 33.292 24.046 34.5018 23.643L34.3985 23.673L35.5841 23.211ZM18.8002 3.70799C18.1314 4.59399 16.2421 7.65449 13.1321 12.8895L6.35751 8.94299L5.95167 8.69549L10.764 1.18199C11.068 0.734994 11.5088 0.400494 12.0271 0.233994L12.0438 0.229494C12.5958 0.0289363 13.1874 -0.042437 13.7721 0.0209942L13.7553 0.0194942C14.1364 0.0544942 14.49 0.139994 14.8163 0.275994L14.7935 0.266994C15.1385 0.404994 15.4304 0.554994 15.707 0.725994L15.6827 0.712494C16.0141 0.931494 16.3044 1.16099 16.5719 1.41149L16.5689 1.40849C16.9114 1.71849 17.1683 1.96099 17.3395 2.13599C17.5108 2.31099 17.7676 2.58849 18.1101 2.96849C18.4557 3.34849 18.6857 3.59499 18.8002 3.70799ZM32.8085 10.1865L37.3427 17.8485C37.6005 18.3495 37.6935 18.9174 37.6087 19.473L37.6102 19.458C37.53 20.0207 37.3261 20.5592 37.0129 21.036L37.022 21.021C36.8278 21.3121 36.5917 21.5738 36.3213 21.798L36.3152 21.8025C36.0693 22.0145 35.8065 22.2066 35.5293 22.377L35.502 22.392C35.2071 22.5645 34.8636 22.7205 34.5049 22.8435L34.4638 22.8555C34.0291 23.0105 33.6947 23.123 33.4606 23.193C33.2265 23.263 32.8592 23.3615 32.3586 23.4885L31.3752 23.736C30.8898 22.723 29.0004 19.6555 25.7071 14.5335L32.4012 10.4175L32.8085 10.1865ZM29.7503 5.41649L32.7873 3.66449L28.0829 11.538L19.1194 11.1165L22.3494 9.30149C21.8713 8.04414 21.3081 6.81988 20.6637 5.63699L20.7458 5.80199C20.2611 4.87302 19.7068 3.98104 19.0875 3.13349L19.1301 3.19499C18.6386 2.53999 18.1785 1.97699 17.7499 1.50599C17.4452 1.15746 17.1139 0.832508 16.7589 0.533994L16.7467 0.523494L16.3834 0.248994L25.0398 0.269994C25.4714 0.224182 25.9071 0.303408 26.2938 0.497994L26.2817 0.491994C26.611 0.640994 26.8897 0.841494 27.1177 1.09349L27.1192 1.09649L27.3548 1.41299C27.9111 2.26699 28.7096 3.60149 29.7503 5.41649Z" fill="#437252"/>
</g>
<defs>
<clipPath id="clip0_1197_547">
<rect width="38" height="36" fill="white"/>
</clipPath>
</defs>
</svg>
