<svg width="36" height="34" viewBox="0 0 36 34" fill="none" xmlns="http://www.w3.org/2000/svg">
<path fill-rule="evenodd" clip-rule="evenodd" d="M11.124 4.25016C10.7118 5.14399 10.4993 6.10856 10.5 7.0835C10.5 7.83494 10.8161 8.55561 11.3787 9.08696C11.9413 9.61832 12.7044 9.91683 13.5 9.91683H22.5C23.2957 9.91683 24.0587 9.61832 24.6213 9.08696C25.1839 8.55561 25.5 7.83494 25.5 7.0835C25.5 6.07625 25.278 5.11716 24.876 4.25016H27C27.7957 4.25016 28.5587 4.54867 29.1213 5.08003C29.6839 5.61138 30 6.33205 30 7.0835V28.3335C30 29.0849 29.6839 29.8056 29.1213 30.337C28.5587 30.8683 27.7957 31.1668 27 31.1668H9C8.20435 31.1668 7.44129 30.8683 6.87868 30.337C6.31607 29.8056 6 29.0849 6 28.3335V7.0835C6 6.33205 6.31607 5.61138 6.87868 5.08003C7.44129 4.54867 8.20435 4.25016 9 4.25016H11.124ZM18 19.8335H13.5C13.1022 19.8335 12.7206 19.9827 12.4393 20.2484C12.158 20.5141 12 20.8744 12 21.2502C12 21.6259 12.158 21.9862 12.4393 22.2519C12.7206 22.5176 13.1022 22.6668 13.5 22.6668H18C18.3978 22.6668 18.7794 22.5176 19.0607 22.2519C19.342 21.9862 19.5 21.6259 19.5 21.2502C19.5 20.8744 19.342 20.5141 19.0607 20.2484C18.7794 19.9827 18.3978 19.8335 18 19.8335ZM22.5 14.1668H13.5C13.1177 14.1672 12.75 14.3055 12.4719 14.5534C12.1939 14.8012 12.0266 15.14 12.0042 15.5005C11.9818 15.8609 12.106 16.2159 12.3514 16.4928C12.5968 16.7696 12.9449 16.9476 13.3245 16.9902L13.5 17.0002H22.5C22.8978 17.0002 23.2794 16.8509 23.5607 16.5852C23.842 16.3196 24 15.9592 24 15.5835C24 15.2078 23.842 14.8474 23.5607 14.5818C23.2794 14.3161 22.8978 14.1668 22.5 14.1668ZM18 2.8335C18.6331 2.83351 19.2591 2.9597 19.8371 3.20381C20.415 3.44793 20.9319 3.80448 21.354 4.25016C21.996 4.92733 22.41 5.79858 22.4865 6.7605L22.5 7.0835H13.5C13.5 6.05641 13.8855 5.11433 14.5275 4.3805L14.646 4.25016C15.471 3.38033 16.668 2.8335 18 2.8335Z" fill="#437252"/>
</svg>
