<svg width="24" height="24" viewBox="0 0 24 24" fill="none" xmlns="http://www.w3.org/2000/svg">
<g clip-path="url(#clip0_3967_6674)">
<path d="M9.7793 9.5332C11.9884 9.5332 13.7793 7.74234 13.7793 5.5332C13.7793 3.32406 11.9884 1.5332 9.7793 1.5332C7.57016 1.5332 5.7793 3.32406 5.7793 5.5332C5.7793 7.74234 7.57016 9.5332 9.7793 9.5332Z" fill="#60B15B"/>
<path d="M10.9607 21.2133C10.7403 20.9954 10.5966 20.7119 10.5509 20.4054C10.5052 20.099 10.5601 19.7859 10.7073 19.5133L11.0607 18.8466L10.334 18.6266C10.0377 18.5338 9.77968 18.347 9.59921 18.0943C9.41873 17.8416 9.32561 17.537 9.33398 17.2266V15.8599C9.33342 15.5509 9.43229 15.2499 9.61597 15.0014C9.79965 14.7529 10.0584 14.5701 10.354 14.4799L11.0807 14.2599L10.734 13.5933C10.5911 13.3243 10.5367 13.0171 10.5786 12.7155C10.6205 12.4138 10.7565 12.1331 10.9673 11.9133C10.4544 11.8462 9.9379 11.8105 9.42065 11.8066C7.89287 11.7706 6.37597 12.0722 4.97814 12.6899C3.58032 13.3076 2.33602 14.2261 1.33398 15.3799V20.5466C1.33398 20.7234 1.40422 20.893 1.52925 21.018C1.65427 21.143 1.82384 21.2133 2.00065 21.2133H10.9607Z" fill="#60B15B"/>
<path d="M22.4675 15.6399L21.1342 15.2399C21.0419 14.9105 20.9122 14.5929 20.7475 14.2932L21.4142 13.0532C21.4399 13.0072 21.4493 12.9538 21.4409 12.9017C21.4324 12.8497 21.4065 12.802 21.3675 12.7665L20.4008 11.7932C20.3636 11.757 20.3161 11.733 20.2648 11.7247C20.2136 11.7163 20.161 11.724 20.1142 11.7465L18.8808 12.4132C18.5773 12.2481 18.2579 12.1141 17.9275 12.0132L17.5208 10.6799C17.5029 10.6307 17.4702 10.5883 17.4273 10.5584C17.3843 10.5286 17.3331 10.5128 17.2808 10.5132H15.8942C15.8422 10.5146 15.7919 10.5321 15.7502 10.5631C15.7084 10.5941 15.6772 10.6372 15.6608 10.6865L15.2608 12.0199C14.9243 12.1187 14.6001 12.2551 14.2942 12.4265L13.0875 11.7599C13.0406 11.7349 12.987 11.7254 12.9344 11.7326C12.8817 11.7397 12.8327 11.7633 12.7942 11.7999L11.8142 12.7599C11.7756 12.797 11.7501 12.8458 11.7417 12.8987C11.7333 12.9516 11.7423 13.0059 11.7675 13.0532L12.4342 14.2665C12.2554 14.5675 12.1101 14.8872 12.0008 15.2199L10.6675 15.6265C10.6171 15.6411 10.5728 15.6718 10.5415 15.714C10.5102 15.7561 10.4935 15.8074 10.4942 15.8599V17.2265C10.4935 17.279 10.5102 17.3303 10.5415 17.3724C10.5728 17.4146 10.6171 17.4453 10.6675 17.4599L12.0008 17.8665C12.1008 18.193 12.2349 18.5081 12.4008 18.8065L11.7342 20.0732C11.709 20.1205 11.7 20.1747 11.7084 20.2277C11.7168 20.2806 11.7422 20.3293 11.7808 20.3665L12.7742 21.3332C12.8127 21.3698 12.8617 21.3933 12.9144 21.4005C12.967 21.4077 13.0206 21.3981 13.0675 21.3732L14.3142 20.7065C14.6106 20.8665 14.9236 20.9939 15.2475 21.0865L15.6475 22.4532C15.6643 22.5036 15.6965 22.5475 15.7395 22.5786C15.7826 22.6097 15.8344 22.6264 15.8875 22.6265H17.2542C17.3061 22.6251 17.3564 22.6077 17.3982 22.5767C17.4399 22.5456 17.4711 22.5025 17.4875 22.4532L17.8875 21.0865C18.2074 20.9945 18.5159 20.8671 18.8075 20.7065L20.0675 21.3732C20.1144 21.3981 20.168 21.4077 20.2206 21.4005C20.2732 21.3933 20.3223 21.3698 20.3608 21.3332L21.3342 20.3665C21.3707 20.328 21.3943 20.2789 21.4015 20.2263C21.4086 20.1737 21.3991 20.1201 21.3742 20.0732L20.7075 18.8199C20.8666 18.5276 20.994 18.2192 21.0875 17.8999L22.4208 17.4932C22.4709 17.4771 22.5149 17.4461 22.5471 17.4045C22.5792 17.3628 22.598 17.3124 22.6008 17.2599V15.8799C22.6025 15.8315 22.5909 15.7837 22.5674 15.7414C22.5439 15.6991 22.5094 15.664 22.4675 15.6399ZM16.5808 18.7865C16.1401 18.7878 15.709 18.6584 15.3419 18.4145C14.9749 18.1706 14.6885 17.8233 14.5189 17.4166C14.3494 17.0098 14.3043 16.5619 14.3895 16.1296C14.4746 15.6972 14.6862 15.2998 14.9973 14.9877C15.3084 14.6757 15.7052 14.4629 16.1373 14.3765C16.5694 14.29 17.0175 14.3337 17.4247 14.5021C17.832 14.6704 18.1801 14.9558 18.4251 15.3221C18.6701 15.6884 18.8008 16.1192 18.8008 16.5599C18.8008 17.1493 18.5671 17.7146 18.151 18.132C17.7349 18.5494 17.1702 18.7848 16.5808 18.7865Z" fill="#60B15B"/>
</g>
<defs>
<clipPath id="clip0_3967_6674">
<rect width="24" height="24" fill="white"/>
</clipPath>
</defs>
</svg>
