<svg width="38" height="38" viewBox="0 0 38 38" fill="none" xmlns="http://www.w3.org/2000/svg">
<path d="M28.8331 17.6194C29.4922 17.0762 33.2981 14.7219 35.3822 12.7388C37.0091 11.1891 37.6384 7.14273 35.1358 5.17444C31.882 2.61835 28.7589 5.3021 28.7589 5.3021C28.7589 5.3021 28.4858 3.78507 26.5858 2.89444C24.193 1.77226 21.1619 1.35366 18.3742 1.38929C15.6727 1.42194 13.1848 1.74851 10.9761 2.8321C8.99891 3.80288 8.88016 5.18632 8.88016 5.18632C8.88016 5.18632 6.28547 2.70741 3.10594 4.72023C-0.070622 6.73601 0.840784 10.7735 2.36969 12.4687C4.36172 14.6774 6.75453 15.8026 7.8411 16.616C8.92469 17.4294 9.96375 18.2043 9.96375 18.9019C9.96375 19.5996 9.655 19.754 9.53625 19.7154C9.42047 19.6768 9.21563 18.9969 8.68422 19.2879C7.95985 19.6887 8.17953 21.3037 9.69063 21.458C11.1542 21.6094 11.4333 20.0627 11.4333 20.0627L11.6648 18.5516L14.0666 20.2171L16.6998 22.3873L16.6227 24.2457C16.6227 24.2457 16.5069 25.6796 15.8092 26.9205C15.1116 28.1615 13.9894 29.3994 13.9894 29.3994L13.9538 30.5216L23.718 30.2901L23.4092 29.2065C23.4092 29.2065 22.1505 27.823 21.3934 26.3387C20.8531 25.2759 20.767 24.2041 20.767 24.2041L20.7433 21.5382L25.8109 18.4329C25.8109 18.4329 26.3542 18.8604 26.277 19.0148C26.1998 19.1691 26.182 20.7515 27.3992 21.3393C28.6016 21.9212 29.5694 21.1849 29.4536 20.1755C29.3378 19.1691 28.7173 19.5165 28.5244 19.6709C28.3314 19.8252 27.9039 19.8638 27.7881 19.2819C27.6694 18.706 28.1741 18.1627 28.8331 17.6194ZM3.88672 12.1391L2.72594 8.60632L4.13016 6.76866L5.7036 6.30851C5.7036 6.30851 7.71344 7.80772 7.78469 7.92944C7.85594 8.05116 9.06719 10.5419 9.06719 10.5419L10.6644 16.3251L3.88672 12.1391ZM26.7045 16.7852C26.7283 16.6635 28.2038 10.5894 28.2038 10.5894C28.2038 10.5182 29.2428 10.0343 29.2428 9.93632C29.2428 9.83835 31.1309 6.76569 31.1309 6.76569L34.2778 6.88741L34.9309 10.0076L33.3575 12.5963C33.3605 12.5993 26.6808 16.904 26.7045 16.7852Z" fill="#FEC417"/>
<path d="M35.6005 9.09631C35.369 6.32943 32.6318 5.6674 31.5066 6.06818C30.3815 6.46897 29.6512 7.22006 29.4018 8.28881C29.1999 9.15272 28.998 9.72865 28.7665 9.81771C28.5112 9.91271 28.2766 9.87412 28.2766 9.87412C28.2766 9.87412 28.2351 8.00381 28.2469 7.24975C28.2766 5.69412 28.7516 5.29631 28.7516 5.29631C28.7516 5.29631 28.6507 4.77084 28.4488 4.4799C28.2469 4.19193 27.8729 3.81787 27.8729 3.81787C27.8729 3.81787 27.959 4.566 27.5849 4.74115C27.2109 4.91631 26.8071 4.65506 26.8071 4.65506L27.1812 6.21068C27.1812 6.21068 26.5755 13.9651 26.5191 14.1372C26.4627 14.3094 24.1857 18.2579 24.1857 18.2579C24.1857 18.2579 22.8587 19.4988 22.2263 19.7868C21.591 20.0747 21.0448 20.8258 18.5955 20.8526C16.1463 20.8822 14.0415 18.9496 14.0415 18.9496L11.9366 16.9308L10.381 12.3471L10.1494 7.67725L10.2474 5.97912L10.3157 5.26959L10.2059 4.91037C10.2059 4.91037 10.004 5.11225 9.62991 5.02615C9.25585 4.94006 9.11038 4.45021 9.11038 4.45021C9.11038 4.45021 8.96491 4.68178 8.9382 4.79756C8.90851 4.91334 8.87882 5.18053 8.87882 5.18053C8.87882 5.18053 9.28257 5.60506 9.36866 6.21068C9.45476 6.81631 9.33898 9.3249 8.90851 9.26553C8.47507 9.20912 8.61757 7.10428 6.97585 6.29678C5.55382 5.59615 3.43116 5.80693 2.56429 7.56443C1.70038 9.32193 2.33273 11.3971 5.0432 13.3297C7.75366 15.2624 10.6393 16.8863 11.0965 18.436C11.6427 20.2796 10.4048 21.3751 10.4048 21.3751C10.4048 21.3751 11.3043 21.2504 11.7466 20.2855C11.8891 19.9738 11.9426 19.5196 11.9634 19.2494C12.9876 20.5854 14.3502 21.7165 16.1552 22.2627C16.838 22.4972 17.6069 22.616 18.6757 22.616C18.8301 22.616 18.9815 22.6101 19.1329 22.6041C20.3827 22.5596 21.4515 22.3251 22.4876 21.8115C23.8859 21.1643 24.9694 20.1757 25.8066 19.0535C25.7829 19.3207 25.9462 19.9857 26.2579 20.5112C26.8041 21.4344 27.7274 21.4908 27.7274 21.4908C27.7274 21.4908 26.4598 20.7427 26.718 18.9555C26.9763 17.1683 28.1579 16.533 29.9451 15.3812C31.7382 14.2263 35.8291 11.8632 35.6005 9.09631ZM6.31382 13.018C5.50929 12.451 4.09913 11.694 3.51726 10.5391C2.74241 8.99834 3.37179 7.13693 4.84429 6.90834C7.9021 6.4274 7.95851 10.2244 8.16038 10.6846C8.36226 11.1447 8.9382 11.1744 8.9382 11.1744C8.9382 11.1744 8.95898 11.4297 9.0421 11.9226C9.04507 11.9374 9.04804 11.9493 9.04804 11.9641L9.05694 12.0087C9.11335 12.3441 9.19351 12.7627 9.30632 13.2407L9.31523 13.2763C9.37757 13.5465 9.44288 13.8018 9.51116 14.0363C9.64773 14.5291 9.81398 15.0605 10.0188 15.6068C9.72194 15.4049 8.02085 14.2263 6.31382 13.018ZM34.0152 10.8835C33.3769 11.9166 32.0855 12.6855 31.1326 13.3327C29.9035 14.1669 28.0748 15.4197 27.5582 15.7701C27.6769 15.4554 27.7809 15.1437 27.8759 14.8379C28.0302 14.4341 28.1935 13.9413 28.3063 13.4099C28.6032 12.0146 28.6537 10.7944 28.6537 10.7944C28.6537 10.7944 29.2593 10.9666 29.6334 10.5629C30.0074 10.1591 30.1469 8.90631 30.4973 8.31553C31.0435 7.39225 32.139 6.44225 33.7837 7.59412C34.7337 8.26209 34.7693 9.66037 34.0152 10.8835ZM17.9662 23.5452L19.6435 23.5244C19.6435 23.5244 19.688 25.3562 19.9523 26.7218C20.2165 28.0904 20.5698 29.6104 20.5698 29.6104C20.5698 29.6104 17.1527 30.7563 17.1735 29.5213C17.1943 28.2863 17.7019 25.8816 17.7019 25.8816C17.7019 25.8816 18.0107 23.0168 17.9662 23.5452Z" fill="#FFA828"/>
<path d="M15.1523 4.50965C15.1523 4.50965 17.0196 4.29886 18.7563 4.32558C20.493 4.3523 22.2802 4.69371 22.2802 4.69371C22.2802 4.69371 22.1763 10.5065 21.8587 13.7692C21.544 17.0318 20.309 19.4751 19.9795 20.1668C19.6618 20.8378 19.4302 21.197 19.4302 21.197L17.7559 21.0011L14.8613 15.1882L15.1523 4.50965Z" fill="#FFA828"/>
<path d="M12.9166 5.37943C12.9166 5.37943 13.4421 5.11522 14.2051 4.82725C14.8968 4.566 15.5202 4.48584 15.5202 4.48584C15.5202 4.48584 15.538 8.33928 15.6004 11.0883C15.6538 13.4307 16.5207 17.2693 16.9422 18.2965C17.3638 19.3237 18.1238 20.8912 18.1238 20.8912C18.1238 20.8912 16.5949 20.6715 15.6538 19.478C15.158 18.8487 12.8394 13.9799 12.7593 10.7707C12.6791 7.56146 12.9938 5.29928 12.9166 5.37943Z" fill="#FFEFAB"/>
<path d="M12.0478 5.82477C11.9944 5.98211 11.5758 9.2982 12.2319 12.3738C12.888 15.4495 13.8588 17.5543 14.5 18.3885C15.07 19.1277 15.4411 19.478 15.6519 19.478C15.8627 19.478 14.785 16.9279 14.2833 14.927C13.7846 12.929 13.5203 10.5332 13.4669 9.35164C13.4135 8.16711 13.363 5.11523 13.363 5.11523C13.363 5.11523 12.7841 5.37945 12.6535 5.45664C12.5228 5.5368 12.0478 5.82477 12.0478 5.82477Z" fill="#FFFCFD"/>
<path d="M15.8359 29.3936C15.8359 29.3936 16.967 27.553 17.2045 26.1577C17.442 24.7623 17.5727 23.5273 17.5727 23.5273L18.2733 23.557C18.2733 23.557 18.205 25.5787 18.1248 26.9473C18.0447 28.3159 17.8102 29.6578 17.8102 29.6578L15.8359 29.3936Z" fill="#FFEFAB"/>
<path d="M16.706 22.3875C16.706 22.3875 17.2315 21.8739 18.6773 21.8739C20.123 21.8739 20.7435 22.4291 20.7435 22.4291L20.7821 24.2133C20.7821 24.2133 19.8202 23.9134 18.6505 23.8986C17.6768 23.8867 16.6288 24.2489 16.6288 24.2489L16.706 22.3875ZM10.3915 4.66702C10.6349 4.44139 12.9684 2.68983 18.4932 2.64233C24.4366 2.58889 26.6662 4.31077 26.8057 4.40577C26.963 4.50968 27.1471 4.98468 27.0699 5.19546C26.9898 5.40624 26.8324 5.48343 26.3871 5.29936C25.9388 5.1153 23.7301 3.50327 18.416 3.66952C13.3127 3.82686 11.1485 5.37952 10.9199 5.51014C10.7359 5.61405 10.3945 5.64077 10.2371 5.42999C10.0768 5.22218 10.2341 4.81546 10.3915 4.66702ZM27.0699 5.90499C26.3871 5.95843 26.8591 11.4565 25.4134 14.9003C23.8637 18.5845 21.8865 19.6355 21.9666 19.8462C22.0468 20.057 23.9824 19.4722 25.2026 17.7414C26.3337 16.1383 27.0165 14.7162 27.3341 12.8222C27.6459 10.9281 27.8299 5.84561 27.0699 5.90499ZM10.246 6.53436C10.0738 6.52546 10.249 9.26858 9.96992 10.4739C9.86304 10.937 9.60179 11.032 9.57508 11.1359C9.54836 11.2398 10.148 14.7697 11.1545 16.3194C12.1282 17.8186 14.049 19.6859 14.3637 19.3712C14.6784 19.0566 12.9684 18.0026 11.8135 15.7137C11.1485 14.4016 10.4716 12.4244 10.4449 10.1622C10.4271 8.66593 10.6141 6.55514 10.246 6.53436Z" fill="#D1701C"/>
<path d="M25.7603 33.4606L25.7573 29.2183H12.1397C12.1812 29.2183 12.1486 32.668 12.1427 33.4755H10.207V36.5481H27.5V33.4755L25.7603 33.4606Z" fill="#865C50"/>
<path d="M16.503 31.4481C16.1676 31.4333 15.7816 31.5016 15.7668 31.9172C15.752 32.3328 15.752 33.5352 15.752 33.7637C15.752 33.9923 15.939 34.1912 16.408 34.2061C16.8771 34.2209 21.2798 34.2061 21.5885 34.2061C21.8973 34.2061 22.0576 33.9389 22.0695 33.6717C22.0843 33.4045 22.0546 32.2794 22.0546 31.9736C22.0546 31.4659 21.6004 31.4659 21.2916 31.4659C20.9591 31.46 16.503 31.4481 16.503 31.4481Z" fill="#FCC219"/>
</svg>
